<svg xmlns="http://www.w3.org/2000/svg" viewBox="0 0 673.77 69.75"><g id="レイヤー_2" data-name="レイヤー 2"><g id="書店ロゴアタリ"><path d="M142,6.12v-2h8.27v2Zm5.81,15.09v-.83h-2.58v1.33H143V13.49h7.1v7.72Zm-4.56-14h6.24V9.28h-6.24Zm0,3.15h6.24v2.08h-6.24ZM143.34,1h5.89V3h-5.89Zm4.48,14.47h-2.58V18.4h2.58Zm8.23-3.14c.25,0,.65.1.65.31s-.33.45-.48.62-.07.48-.12.75a13.51,13.51,0,0,1-3.94,8l-1.85-1.7A10.77,10.77,0,0,0,153.64,12Zm7.19.51h-2.35V10.5h-7.83v2.34h-2.33V8.5h12.51Zm.13-10.68v2h-5.32V5.54h4.19v2h-10.1v-2h3.46V4.19h-4.82v-2h4.82V.4L158,.48c.3,0,.67,0,.67.27,0,.1-.45.43-.55.5a.77.77,0,0,0-.1.38v.53Zm-3.91,10c.47,0,.92,0,.92.36,0,.15-.15.25-.27.35s-.3.27-.3.45v4.89c0,.9.1,1.1.52,1.1.86,0,1-1.4,1-2.38L163.57,18c-.33,2.23-.73,3.58-2.43,3.58h-2c-.88,0-1.78-.33-1.78-1.63V12.08Z"/><path d="M177,.83c.68.1.8.12.8.35a.39.39,0,0,1,0,.15c0,.1-.38.27-.45.32a30.42,30.42,0,0,0-.43,3.11A16.62,16.62,0,0,0,181,3.66V6.39c-1.16.25-2.41.53-4.47.81-.12,1.3-.27,2.6-.4,3.4a2.68,2.68,0,0,1,.45,1.33A7,7,0,0,1,176.1,14a14.09,14.09,0,0,0-1.36,4,.7.7,0,0,0,.36.65,9.41,9.41,0,0,0,3.28.35c3.56,0,4.84-.55,4.84-1.95A9.93,9.93,0,0,0,182,13.16l2.49-.75a11.94,11.94,0,0,1,1.43,5.09c0,3.73-3.54,3.93-7.88,3.93-2.23,0-6,0-6-2.5a5.36,5.36,0,0,1,.37-1.66,3.1,3.1,0,0,1-3-3.26c0-1.73,1.1-4.83,3.63-4.83a5.75,5.75,0,0,1,.76.05c.12-.61.12-.78.25-1.73-1.83.15-3.26.15-4.11.15L169.81,5a22.6,22.6,0,0,0,2.45.12c.91,0,1.53,0,2-.05,0-.52.05-1.07.05-1.88,0-1.17-.08-2-.13-2.78Zm-5.34,12.46c0,.65.4,1.1.85,1.1,1,0,1.43-1.53,1.43-2.11a.77.77,0,0,0-.85-.82A1.78,1.78,0,0,0,171.61,13.29ZM186.78,9a12.52,12.52,0,0,0-4.16-4.34l1.5-2.1a16.23,16.23,0,0,1,4.46,4.31Z"/><path d="M201.09,1.2c.27.08.75.25.75.45a.3.3,0,0,1-.1.23c-.1.1-.38.28-.48.38s-.6,2.43-.72,2.88a13.36,13.36,0,0,0,4.08-1.51V6.47a19.46,19.46,0,0,1-4.81,1.38,67.91,67.91,0,0,1-5.06,13.38l-2.89-1c3-4.16,4.72-10.25,5.17-12-1.13.05-3,.18-4,.2l0-2.83a10.46,10.46,0,0,0,2,.15,19.78,19.78,0,0,0,2.68-.17A22.23,22.23,0,0,0,198.48.5Zm9.7,19.66a23,23,0,0,1-4.11.27c-5.39,0-6.57-1.07-6.57-3.3a12.74,12.74,0,0,1,.28-2.39l2.48.63a2.18,2.18,0,0,0-.2.93c0,1,.52,1.48,3.61,1.48a14.67,14.67,0,0,0,4.39-.6Zm-.33-9.4a18.26,18.26,0,0,0-4.13-.5,16.09,16.09,0,0,0-3.36.37V8.6c.65,0,3.53-.2,4.14-.2a13.24,13.24,0,0,1,3.35.35ZM207.91,5a13.6,13.6,0,0,0-2.38-2.5l1.2-1.06a10.15,10.15,0,0,1,2.43,2.49Zm2.78-1.43a10,10,0,0,0-2.11-2.35l1.26-1A8.14,8.14,0,0,1,212,2.61Z"/><path d="M217.91,20.36a25.41,25.41,0,0,1-1.93-9.5,37.74,37.74,0,0,1,.82-7.2c.33-1.55.38-1.75.48-2.33l2.43.63c.3.07.7.22.7.45s-.47.4-.55.5a22.89,22.89,0,0,0-1.4,8.4,13.32,13.32,0,0,0,.57,4.16A15.8,15.8,0,0,1,220,13l1.71,1.07a18.15,18.15,0,0,0-1.36,5.67ZM222.8,6.74a15,15,0,0,0,2.6.23,19.57,19.57,0,0,0,3.09-.3c-.08-.85-.33-3.74-.71-5.64l2.76.2c.38,0,.88.07.88.35,0,.1-.3.45-.35.53s-.08.4-.08,1.2c0,.65,0,1.33.1,2.78a27.62,27.62,0,0,0,3.39-1.18l.1,2.79a32.14,32.14,0,0,0-3.39.85c0,.42.1,1.93.1,3,0,5.59-1.7,7.92-3.73,10.45l-2.66-1.48c2.13-2.05,3.84-3.71,3.84-9,0-.93-.05-1.81-.08-2.36a24,24,0,0,1-5.36.38Z"/><path d="M257.36,4.29a13.2,13.2,0,0,0-5.56,2.28c-1.38,1-4.69,3.63-4.69,7.24,0,4.29,4.11,4.74,6.74,4.82l-.92,2.95a13.5,13.5,0,0,1-4.89-1.4,6.71,6.71,0,0,1-3.81-5.81c0-4.49,3.26-7.23,5.31-8.95-.8.07-4.29.62-5,.72-1.78.28-3.31.48-5.21.75l-.5-2.78a98.49,98.49,0,0,0,18.4-2.66ZM256,11.93a14.74,14.74,0,0,0-2.65-2.15l1-1.28a15.39,15.39,0,0,1,2.81,2.13Zm2-2.48a13,13,0,0,0-2.58-2.13l1-1.13A13.55,13.55,0,0,1,259,8.25Z"/><path d="M269.29,13.76a10,10,0,0,0,3.14,2.94l-1.68,1.9a6.21,6.21,0,0,1-1.46-1.5v4.76h-2.43V17.15a18.27,18.27,0,0,1-2.68,3.43L262.1,19.1a17.07,17.07,0,0,0,4.36-5.56H262.7V11.46h4.16v-2h-4.24V7.37h2.48c-.12-.43-.77-2.28-.9-2.66l1.48-.45H263V2.18h3.89V0l2.41.2c.17,0,.62,0,.62.28s0,.12-.35.42a.65.65,0,0,0-.17.53v.75H273V4.26h-2.69l1.41.35c.42.1.55.15.55.35s0,.15-.38.3a.58.58,0,0,0-.25.36,11.69,11.69,0,0,1-.57,1.75h2.2V9.48h-4v2h3.59v2.08h-3.59Zm-.48-6.39a23.11,23.11,0,0,0,.81-3.11h-3.24c.4,1,.63,1.58,1,2.66l-1.46.45Zm7.25-5.57A19.31,19.31,0,0,0,281.85.2l1.33,1.73c.3.38.38.5.38.73a.18.18,0,0,1-.2.17c-.08,0-.43-.1-.51-.1a3.75,3.75,0,0,0-.77.13A39.79,39.79,0,0,1,276.34,4V7.45h7.24V9.6h-2.46V21.71h-2.38V9.6h-2.4v3.06c0,5.72-2.26,8.75-2.79,9.45L271.05,21c1.33-1.43,2.83-3.66,2.83-8.37v-11Z"/><path d="M297.67,1c.2.05.77.22.77.4a.38.38,0,0,1-.07.25c-.08.07-.43.28-.48.35s-.65,2.53-.75,2.91a12.4,12.4,0,0,0,4-1.51l.1,2.79a21.37,21.37,0,0,1-4.89,1.4A77.26,77.26,0,0,1,291.25,21L288.39,20a42.83,42.83,0,0,0,5.16-12c-1.42.12-2.23.17-3.83.2l-.13-2.83a14.77,14.77,0,0,0,2.44.2,19.9,19.9,0,0,0,2.18-.13A20.58,20.58,0,0,0,295,.38Zm9.6,19.63a23,23,0,0,1-4.06.27c-4.67,0-6.65-.75-6.65-3.46a9.85,9.85,0,0,1,.28-2.3l2.58.62a2.15,2.15,0,0,0-.22.93c0,1,.52,1.56,3.3,1.56a14.85,14.85,0,0,0,4.64-.61ZM307,11.23a22.09,22.09,0,0,0-4.06-.5,15.88,15.88,0,0,0-3.44.38V8.37c.65,0,3.56-.12,4.14-.12a12.8,12.8,0,0,1,3.36.27Z"/><path d="M321.48.8c.27.1.8.28.8.5s-.42.35-.55.43a13.26,13.26,0,0,0-1,2.53,12.42,12.42,0,0,0,3.24-.9l-.18,2.83a25.32,25.32,0,0,1-4,.7,75.11,75.11,0,0,1-5.22,10.56l-2.78-1.3A29.27,29.27,0,0,0,317,7.09c-1,0-2.39.11-3.41.13l-.13-2.66c.55.05,1.43.15,2.38.15.71,0,1.36,0,2.06-.1A44.72,44.72,0,0,0,319.15,0ZM327.92,21a15.44,15.44,0,0,0-2.38-2c-.2,1.05-.68,3-4.16,3-2.78,0-5-1.41-5-3.66,0-2,1.76-3.54,4.24-3.54a9.05,9.05,0,0,1,2.33.3c0-.55-.1-3-.1-3.46a3.28,3.28,0,0,1,1.26-3l2.48,1.51c-1.18,1-1.18,1.38-1.18,2.08s.1,3.23.1,3.76a18.67,18.67,0,0,1,4.09,2.71Zm-7.49-3.88c-1.46,0-1.61.93-1.61,1.2,0,1.08,1.51,1.33,2.21,1.33,1.8,0,1.88-1.23,1.93-1.93A7.16,7.16,0,0,0,320.43,17.15Zm9.2-7a15.21,15.21,0,0,0-5.49-3l1.35-2A14.39,14.39,0,0,1,331.13,8Z"/><path d="M343,1.08c.53.12.53.25.53.35s-.08.22-.58.48c-.15.07-.2.17-.3.35-.25.6-.88,1.8-1.56,3.11.41.17.78.37.78.57s-.05.18-.47.53c-.21.15-.21.22-.21.35v15h-2.55V9.5a17.77,17.77,0,0,1-1.41,1.91l-2-1.86A27.55,27.55,0,0,0,340.38.48ZM348.5,1c.3.07.53.22.53.37s-.2.2-.43.31A9.26,9.26,0,0,0,347.4,4H357V6.27h-7.12V9h6v2.51h-6v2.75h6.77v2.51h-6.77v5.07h-2.53V6.27h-1.05a21.25,21.25,0,0,1-2.78,4.48l-2.24-1.47A20.4,20.4,0,0,0,345.82.4Z"/><path d="M369.43,20.16h-4.31v1.48h-2.36V11h9V21.28h-2.36Zm0-2.24V13.34h-4.31v4.58ZM366.85.83h11.8V9.1h-11.8Zm2.6,6.06h6.6V3h-6.6Zm10.81,13.27H375.9v1.4h-2.54V11h9.46V21.28h-2.56Zm0-2.24V13.34H375.9v4.58Z"/><path d="M403.72,20.93c-2.58.18-5.19.35-7.77.35-2,0-7.35,0-7.35-5.08,0-2.49,1.36-4.27,5.19-6.52a2.76,2.76,0,0,1-1.18-1.58,66.3,66.3,0,0,1-.9-7.2L395,.48c-.05,1.27-.08,2.5-.08,4,0,2.81.28,3.44,1.43,3.91.95-.42,5.72-2.45,6.77-2.93l.8,3c-5.21,1.53-12.63,3.93-12.63,7.75,0,2.38,2.75,2.53,4.78,2.53a40,40,0,0,0,7.7-1Z"/><path d="M429,12.11c.3,0,.47,0,.47.25s-.1.22-.3.38-.12.2-.12.35v8.7h-2.61V20.31h-14v1.48h-2.61V12.08l2.36.13c.3,0,.72,0,.72.3s-.12.25-.35.43a.35.35,0,0,0-.12.3V17.8h5.64V10.66h-7.57V1.8l2.7.11c.15,0,.45.07.45.25s-.15.25-.35.4-.15.15-.15.3V8.15h4.92V.4l2.7.1c.33,0,.56.08.56.3s-.15.25-.45.43a.4.4,0,0,0-.18.37V8.15h4.81V1.88l2.74.15c.37,0,.67,0,.67.25s-.15.28-.52.43-.25.2-.25.35v7.6h-7.45V17.8h5.69V12Z"/><path d="M439.54,8.57a26.58,26.58,0,0,1-3,1.58l-1.9-2.23A18,18,0,0,0,444.12.05l2.81.43c.58.07,1,.15,1,.47s-.35.55-.53.65a22.27,22.27,0,0,0,9.05,5.95l-1.78,2.23c-1-.43-1.65-.75-2.73-1.31v1.61H439.54Zm5.66,5.9c-.52,1.15-1.75,3.33-2.18,4.11,1,0,2.26-.13,6.34-.58a11.23,11.23,0,0,0-2-1.68l1.81-1.75a40.21,40.21,0,0,1,6.37,6l-2.13,1.73c-.15-.2-1.43-1.6-2.16-2.38a103.81,103.81,0,0,1-11.88,1.58c-.38.05-1.08.12-1.28.35-.35.4-.43.45-.63.45s-.43-.22-.55-.72l-.7-2.69c2.35,0,2.93,0,3.63-.07a33.86,33.86,0,0,0,2.31-4.31h-5.67V12.08H455v2.39Zm5.37-6.77a17.64,17.64,0,0,1-5.12-4.62,17.27,17.27,0,0,1-4.58,4.62Z"/><path d="M478.69,21a16,16,0,0,1-4.18.47c-3.19,0-4.12-.4-4.12-2.3,0-.5.25-2.78.25-3.24a1,1,0,0,0-1-1.12,2.94,2.94,0,0,0-1.63.65,69.15,69.15,0,0,0-4.51,5.69l-2.81-1.71a51,51,0,0,0,9.23-10.75,29.58,29.58,0,0,1-6.8,1.13l-.6-2.84c4.21-.07,7.4-.42,10.86-2L475,7.2c-1.11.8-1.41,1.17-4.49,5.18,1.5-.07,2.83-.12,2.83,1.94,0,.5-.2,2.68-.2,3.1,0,.91.15,1.36,1.63,1.36a11.12,11.12,0,0,0,4-.75Zm-5.94-17.6a21.46,21.46,0,0,1-6.84-.8L466,0a17.63,17.63,0,0,0,5.47.85c.6,0,1,0,1.35-.05Z"/><path d="M498.14,20.41a13.62,13.62,0,0,0-4.49-2.71c0,.45.06.7.06.95,0,2.16-2.24,2.71-4.17,2.71-2.15,0-5.89-.63-5.89-3.51,0-2.11,2.31-3.46,5.27-3.46a14.27,14.27,0,0,1,1.78.13c-.15-1.36-.2-1.91-.25-2.69-3.16.1-6.35.18-6.35-1.7,0-1.63,2-2.66,3-3.09l1.28,1.18c-.66.33-1.21.6-1.21.88s.63.43.93.45a19.26,19.26,0,0,0,2.31,0c0-2.63,0-2.91,0-3.36-1,0-5.06.25-6.74.58l-.15-2.68c.62,0,5.64-.18,6.84-.23,0-.55-.07-3-.07-3.43l2.65.32c.83.1.91.1.91.35s-.56.5-.58.61a11.22,11.22,0,0,0-.18,2.1c4.14-.18,5.27-.23,6.82-.35l-.12,2.76A24.49,24.49,0,0,0,496,6c-1.48,0-2.23,0-3.06,0,0,.75-.05,2.06-.07,3.31a35,35,0,0,0,6-1.1L498.77,11a41.45,41.45,0,0,1-5.84.75c.07,1.38.17,2.23.32,3.33a20.31,20.31,0,0,1,6.45,3.06Zm-9.52-3.76c-1.26,0-2.36.37-2.36,1.07S487.74,19,489.09,19C491,19,491,18.4,491,17.9a8.5,8.5,0,0,0,0-1A14.13,14.13,0,0,0,488.62,16.65Z"/><path d="M515.81.45c1,.13,1.11.15,1.11.48,0,.12-.08.2-.25.32s-.28.3-.31,2.94c2.41-.15,4.77-.3,7.17-.53V6.42c-.87,0-3.66-.08-4.21-.08-1,0-1.9,0-2.93.13l.05,3.21a5.1,5.1,0,0,1,.95,3.18,12.06,12.06,0,0,1-1.13,5,12.1,12.1,0,0,1-3.53,4.58L510,21.16a9.36,9.36,0,0,0,4.33-5,2.47,2.47,0,0,1-2.2,1c-1.76,0-3.46-1.38-3.46-4.21s1.78-4.74,4.28-4.74a6.19,6.19,0,0,1,.86.07V6.64a90.89,90.89,0,0,0-9.35,1l-.31-3c2.41,0,4.19-.1,9.58-.38a30.88,30.88,0,0,0-.47-4.19Zm-4.66,12.39c0,.37.08,2,1.38,2,.6,0,1.68-.45,1.68-2.13s-.6-2.06-1.46-2.06S511.15,11.63,511.15,12.84Z"/><path d="M528.22,2.31h3.18v5l-.85,8.5h-1.48l-.85-8.5Zm0,18.3V17.42h3.18v3.19Z"/><path d="M1.15,66.34c5.14-.58,7.15-1.86,8.75-3.16a28,28,0,0,0-3.58-1.46c-.48,1-.53,1.11-.63,1.33L3.06,62.3a56,56,0,0,0,2.88-6.69H0V53.18H6.89c.63-1.81,1.43-4.09,1.83-5.57l2.59.43c.4.07.72.12.72.37s0,.18-.52.38c-.18.07-.23.15-.3.35-.5,1.3-.63,1.58-1.56,4H21.31v2.43H17.1a23.62,23.62,0,0,1-3,6.74,36.81,36.81,0,0,1,6.54,4.36l-2.38,1.83a29.71,29.71,0,0,0-5.92-4.13,18.32,18.32,0,0,1-9.67,4.21ZM8.77,55.61c-.42,1.18-1.25,3.21-1.58,4a23.24,23.24,0,0,1,4.62,1.58,20,20,0,0,0,2.35-5.61Z"/><path d="M28.73,52.32c.52.1.77.18.77.4s-.1.2-.27.28-.18.25-.28,1a28.49,28.49,0,0,1-.85,4.59l-2.16-.48A23.11,23.11,0,0,0,27.07,52Zm10.6-.1V47.33l2.51.08c.37,0,.72,0,.72.28s-.52.55-.62.67a1,1,0,0,0-.1.5v3.36H47.3v2.44H41.84v4h4.53v2.41H41.84v4.81h6.09v2.38H33.54V65.86h5.79V61.05H35.07V58.64h4.26v-4H36.5c-.58,1.57-.91,2.3-1.41,3.4L32.64,57a10.12,10.12,0,0,0,1.15-1.85c-.95-1.16-1.25-1.48-1.68-2v16H29.63V47.26l2.2.12c.68,0,.83.1.83.33s-.12.2-.32.33a.37.37,0,0,0-.23.37v3.46l1-.73c.23.23.93.93,1.58,1.68A23.93,23.93,0,0,0,35.49,49l2.31.56c.3.07.63.22.63.4s-.43.5-.65.67c-.13.45-.38,1.26-.48,1.63Z"/><path d="M52.91,50.89h8.65V53.1H52.91Zm8.15,18.23H58.7v-.9H55.92v1H53.56V60.4h7.5v6.39a16.2,16.2,0,0,0,1.08-5l2.1.33c.31,0,.53.08.53.3s-.35.4-.37.48c-.06.25-.18,1.35-.23,1.58a14.18,14.18,0,0,1-.93,3.38L61.06,67ZM54,54.18h6.67v2H54Zm0,3.11h6.67v2H54Zm.15-9.6h6.44v2.15H54.19ZM58.7,62.48H55.92v3.66H58.7Zm3.44-9.83V50.22h4.51v-3l2,.07c.53,0,1,0,1,.21a1.16,1.16,0,0,1-.36.6.75.75,0,0,0-.12.42v1.66H74.3v2.43H69.21v2.91h4.51v2.38H62.56V55.56h4.09V52.65Zm5,8.75c.63,0,.73.05.73.22s-.18.21-.35.38a.51.51,0,0,0-.15.4v3.39c0,.6.3.7.83.7h.9c.35,0,.65,0,.65-2.21l2.23.8c-.15,2.39-.25,3.76-2.61,3.76H67.05c-1.88,0-2-.9-2-1.93V61.27ZM67.63,58a14.89,14.89,0,0,1,2.81,2.38L68.78,62.2a12.05,12.05,0,0,0-2.63-2.56Zm4.74,2.43A27.32,27.32,0,0,1,75,65.36l-2.45,1.23a18.57,18.57,0,0,0-2.18-5.07Z"/><path d="M82.67,60.9c-.1.07-.48.32-.56.4a2.35,2.35,0,0,0-.15,1,16.93,16.93,0,0,1-.65,4.41l-2.15-.45a27,27,0,0,0,.82-6l2.26.3a2,2,0,0,1,.43.15V59c-.3,0-2.13.2-2.21.25s-.33.33-.4.38a.39.39,0,0,1-.15,0c-.25,0-.3-.32-.33-.5l-.17-2.08h1.28c.77-.9,1.22-1.5,1.85-2.36a15.42,15.42,0,0,0-3.16-2.35l1.36-2c.17.12.47.32,1,.7a18,18,0,0,0,1.86-3.74l1.9.91c.23.1.36.17.36.32s-.13.23-.41.33-.27.15-.47.5c-.43.73-.68,1.15-1.83,2.88.32.35.42.45.65.68.35-.53,1.15-1.75,1.85-3.06l1.83.8c.1.05.41.25.41.43s0,.17-.56.35c-.17.08-.25.18-.82,1-1.11,1.6-2.11,2.93-3.44,4.56,1.63,0,1.83-.05,2.46-.1a15.48,15.48,0,0,0-.38-1.63L87,54.88a18.34,18.34,0,0,1,.88,4.34L86,59.67c0-.18-.1-.5-.18-.9a8.11,8.11,0,0,1-1,.07V69.2h-2.2Zm14.46,7.62h-1.4V64.76H94.65v3.76H93.22V64.76H92.14v4.36h-2V63.4a21.38,21.38,0,0,1-2.33,5.49l-2.39-1a18.59,18.59,0,0,0,2-3.73l-1.32.37a39.66,39.66,0,0,1-.68-4.11l1.9-.3a19.87,19.87,0,0,0,.46,2.76,17.49,17.49,0,0,0,.6-4.77V51.42h11.5v6.22H90.71V59h9.88v7.89c0,2.11-1.15,2.19-2.81,2.21L97.13,67ZM87.38,48h13.41v2.28H87.38Zm10.08,7.52v-2H90.71v2ZM93.22,63V61H92.14v2Zm2.51,0V61H94.65v2Zm2.6,0V61h-1.2v2Zm-.67,3.74c.45,0,.67-.08.67-.6V64.76h-1.2v1.93Z"/><path d="M109.11,53.4a13.26,13.26,0,0,1-1.58,1.53l-2-1.7a14.31,14.31,0,0,0,5-6.2l2.36.48c.32.07.62.15.62.35s-.15.2-.4.35a14,14,0,0,0-1,1.33h3.61a9.18,9.18,0,0,0,1.18-2.38l2.51.27c.37,0,.58.13.58.33s-.15.18-.51.3c-.12,0-.2.18-.3.3a12.38,12.38,0,0,1-.85,1.18h8.07v1.81h-8.29v1.22h6.74v1.58h-6.74v1.23h6.74v1.68h-6.74v1.28h8.57v1.81h-8.57V61.6h9.15v1.93h-6.77a13.9,13.9,0,0,0,7.14,3.26L125.83,69a15.87,15.87,0,0,1-7.69-4.79V69h-2.49V63.71a20.12,20.12,0,0,1-8,5.39l-2-2a14.5,14.5,0,0,0,6.92-3.53h-6.34V61.6h9.47V60.15h-6.54Zm6.54-2h-4.16v1.22h4.16Zm0,2.8h-4.16v1.23h4.16Zm0,2.91h-4.16v1.28h4.16Z"/><path d="M135.83,56h3.76a25,25,0,0,0,1.5-4l2.41.93c.3.12.45.22.45.35s0,.1-.62.27c-.1,0-.18.1-.38.55s-.8,1.66-.95,1.93h2.43v2H132.5V56h2.95a19.71,19.71,0,0,0-1.22-3.36l2.3-.75a20.54,20.54,0,0,1,1.26,3.44Zm1.6-8.8,2.74.15c.45,0,.62.08.62.23s-.25.38-.35.43c-.25.15-.3.17-.3.25v1.48h4v2H133.27v-2h4.16Zm-3.28,12.46h9.25v9H141V67.52h-4.53V69h-2.36Zm2.36,5.79H141V61.72h-4.53Zm17.7-15.69c-1.21,2.56-1.86,3.86-3.29,6.57,2.76,2.38,3.24,4.66,3.24,5.94,0,.55,0,3.94-5,4.61l-1.53-2.7V69h-2.41V48.31H153Zm-6.57.8V64.08c1.25,0,3.91,0,3.91-2.08,0-1.4-1.08-3.63-3.16-5.31,1-2.29,1.76-4.27,2.43-6.15Z"/><path d="M161.22,67.87a17.1,17.1,0,0,1-1.83-8.23c0-2.78.33-4.33,1.73-11.25l2.48,1c.5.2.65.28.65.48s0,.12-.05.15a2.87,2.87,0,0,1-.37.15c-.5.2-1.93,5.79-1.93,9.65a15.87,15.87,0,0,0,.2,2.48,17.31,17.31,0,0,0,1-1.65l1.65,1.25a12.76,12.76,0,0,0-1.63,5.29Zm16.62-1.41a31.21,31.21,0,0,1-5,.33c-5.27,0-6.42-1.1-6.17-5.87l2.56-.22a5,5,0,0,0-.18,1.38c0,1.3.83,2,3,2a26.47,26.47,0,0,0,5.89-.76Zm-.72-13.79a32.92,32.92,0,0,1-6.35.68,12.33,12.33,0,0,1-3.23-.32l0-2.64a13.77,13.77,0,0,0,3.84.5,19.76,19.76,0,0,0,5.82-.85Z"/><path d="M198.32,67.14A13.21,13.21,0,0,0,193.08,64c0,.2,0,.58,0,.85,0,3.19-2.61,3.34-4.92,3.34-1.08,0-5.74,0-5.74-3.56,0-2.38,2.08-3.91,5.77-3.91a18,18,0,0,1,2,.12c-.23-3.76-.3-5.16-.3-6.82,0-.67.05-3.58.05-4.18,0-1.13-.08-1.58-.13-2.06l2.69.5c.45.08,1.05.2,1.05.45s-.48.58-.53.68a19.1,19.1,0,0,0-.45,3.33,21.82,21.82,0,0,0,6.54-1v2.93a35.47,35.47,0,0,1-6.64.63c.05,2.2.15,3.88.33,6A20.64,20.64,0,0,1,200,64.73ZM187.74,63c-1.85,0-2.68.7-2.68,1.43,0,1,1.33,1.4,2.56,1.4.37,0,2.4,0,2.7-1.15a5.43,5.43,0,0,0,0-1.38A17.33,17.33,0,0,0,187.74,63Z"/><path d="M204.41,60.87a44.42,44.42,0,0,0,9.1-9.27c-2.53.32-3.31.4-6,.57l-.42-2.88c.7.05,1.9.13,2.6.13a28.11,28.11,0,0,0,8.08-1.31l1.15,2c-1.53,1.13-2.93,2.71-5.54,5.69a7.8,7.8,0,0,1,2.08-.27c5,0,5.94,3.68,5.94,5.79,0,4.34-3.51,7.17-8.05,7.17-1.68,0-5.13-.43-5.13-3.64,0-1.63,1.1-3.38,3.91-3.38a5,5,0,0,1,4.78,3.28,4.12,4.12,0,0,0,1.81-3.46c0-1.43-.58-3.51-4-3.51s-5.29,2-8.17,5.19Zm7.72,2.71a1.35,1.35,0,0,0-1.45,1.18c0,.95,1.33,1.38,2.4,1.38a5.12,5.12,0,0,0,1.56-.25A2.63,2.63,0,0,0,212.13,63.58Z"/><path d="M225.72,63.33A25.61,25.61,0,0,0,235,55.61h-8.4V53h9.81l-.13-4.92,2.31.08c.85,0,.95,0,.95.3s-.08.27-.28.4-.25.27-.25.45l.1,3.69h5.34v2.63h-5.26l.25,9.45c.07,2.81-1.53,3.46-5.44,3.41l-1.18-2.89a16.45,16.45,0,0,0,1.93.13c1.73,0,1.93-.38,1.91-1.45l-.13-6.35a31.58,31.58,0,0,1-8.87,7.8Z"/><path d="M265.62,67.39a31.25,31.25,0,0,0-6.27-6.67,23.11,23.11,0,0,1-8.79,6.7l-2.14-2.11A22.25,22.25,0,0,0,261,52.75h-9.73V50.07h10.18a3.12,3.12,0,0,0,2.16-.76l1.95,2.41c-1.15.5-1.3.78-1.6,1.48A30.69,30.69,0,0,1,261,58.44a30.05,30.05,0,0,1,6.72,6.67Z"/><path d="M288.23,67.39A31.25,31.25,0,0,0,282,60.72a23.08,23.08,0,0,1-8.8,6.7L271,65.31a22.25,22.25,0,0,0,12.54-12.56h-9.73V50.07H284a3.12,3.12,0,0,0,2.16-.76l1.95,2.41c-1.15.5-1.3.78-1.6,1.48a30.69,30.69,0,0,1-2.89,5.24,30.29,30.29,0,0,1,6.72,6.67Z"/><path d="M309.26,50.57c.6.32.85.45.85.7s-.1.2-.37.28c-.53.15-.55.17-.65.4a26.43,26.43,0,0,1-3.19,6.37,42.31,42.31,0,0,1,3,3.83l-2.21,2.16a18.45,18.45,0,0,0-2.58-3.66,27,27,0,0,1-8.27,6.46l-2.38-2.4a20.25,20.25,0,0,0,8.6-6.22,31.29,31.29,0,0,0-3.91-3.21l1.78-2.23a27.58,27.58,0,0,1,3.88,3.08,24.17,24.17,0,0,0,3-6.82Z"/><path d="M321.27,57.36a32.94,32.94,0,0,1,3.08,2.48,56.62,56.62,0,0,0,4.76-5.44H314.85V51.82h15.44c.3,0,.7,0,1.73-.9l2.31,2.23c-1.13.78-1.28.88-3.09,3.13-.57.71-2,2.49-4.93,5.52a34.92,34.92,0,0,1,2.38,3l-2.36,1.78a25.42,25.42,0,0,0-6.84-7.29Z"/><path d="M343.62,55.16a23.54,23.54,0,0,0-4.41-4.32l1.93-2.23a35.65,35.65,0,0,1,4.59,4.16Zm14.47,1c-5.49,6.24-8.82,7.75-15,10.53-1.23.55-1.36.63-1.51,1s-.17.43-.37.43-.25-.1-.58-.81l-1.25-2.68c10.3-2.7,14.41-7.59,17.3-11Z"/><path d="M371.8,48.39c.48,0,1,.07,1,.37,0,.13-.45.48-.55.61s-.17,3.1-.23,3.68h7.35c-.07,7.75-1.23,11.38-1.55,12.21-.88,2.26-2.11,2.43-5.54,2.43l-.93-2.88c.95.1,2,.2,2.43.2.8,0,1.38-.1,1.83-1.78a28.68,28.68,0,0,0,1-7.75h-4.87c-1,5.52-3.26,10-8,13l-2.08-2c5.54-3,6.84-8,7.39-11h-6.87V53.05h7.15c0-.33.05-.93.05-1.48,0-1-.1-2.53-.18-3.38Zm6.64,3.36a13.09,13.09,0,0,0-2.4-2.33l1.1-1.13a7.21,7.21,0,0,1,2.58,2.25Zm3.09-1.33a21.06,21.06,0,0,0-2.69-2.51l1.21-1.13a13.46,13.46,0,0,1,2.78,2.36Z"/><path d="M388.49,60.72s.43.05.43.28-.05.17-.3.3-.18.25-.18.6c-.15,3.94-.42,5-.65,5.67l-2.43-.33a19.74,19.74,0,0,0,.9-6.74Zm4.84-.88-.2-1c-.88.13-1.13.18-1.55.25V69.35h-2.29V59.42c-.4,0-2.5.27-2.6.3s-.35.4-.43.4-.22-.3-.22-.4l-.33-2.18c.75,0,1.5,0,2.33-.08.53-.82.68-1.08.85-1.38a18.94,18.94,0,0,0-3.41-3l1.38-2.16c.4.28.6.43.85.63a17.28,17.28,0,0,0,1.76-4.24l1.88.91c.23.1.58.25.58.45s-.2.2-.53.32c-.08,0-.18.05-.38.53a16.12,16.12,0,0,1-1.78,3.36c.41.48.56.63.93,1.05a34.89,34.89,0,0,0,2.31-4.26l2,.88c.35.15.41.27.41.4s-.26.23-.43.32-.18.08-.5.63c-1.48,2.36-2.21,3.54-3.61,5.44,1.05,0,1.68-.1,2.23-.15a9.7,9.7,0,0,0-.6-1.85l2-.61a16.26,16.26,0,0,1,1.46,4.77Zm1.28.81a42.31,42.31,0,0,0,.63,5.31l-2.41.4a44.67,44.67,0,0,1-.4-5.51Zm.48-3.94a6.51,6.51,0,0,0,3.43-6h-2.93V48.16H407c-.2,9.88-1.48,9.93-5.16,10l-1.15-2.63c2.23,0,2.48,0,2.83-.5s.58-2.13.75-4.34h-3.08a9.26,9.26,0,0,1-3.86,7.54Zm3.4,11.36V69.2h-2.65V58.94h11V69.12H404V68.07ZM404,61.22h-5.52v4.62H404Z"/><path d="M424.19,47.69c.7.07.8.07.8.27s-.1.15-.33.33c1.41,1.88,4.54,4.89,10.28,7.32l-2.1,2.45A30.47,30.47,0,0,1,422.91,50a29.64,29.64,0,0,1-9.35,8.45l-2.46-1.84c2-1,7.5-4.13,10.08-9.2Zm-3.66,8.44c.5,0,.6,0,.6.28s-.08.23-.43.48c-.15.12-.15.17-.15.35,0,6.92-.83,10.2-5,12.51l-2-2c4.26-2.36,4.26-5.67,4.26-11.79Zm7.77.2c.27,0,.5.08.5.23a.44.44,0,0,1-.2.33c-.23.22-.23.3-.23.47V69.27h-2.75V56.06Z"/><path d="M448.8,51.17V53.1h-10V51.17ZM439.55,61h8.35v7.79h-2.48v-1H442V69h-2.46Zm8-3.31v1.88H440.1V57.69Zm.05-3.24v1.88h-7.42V54.45Zm-.2-6.64v2h-7.1v-2ZM442,65.71h3.41V63.08H442Zm18.9-1.3c-.43,3.23-.8,4.08-3.64,4.08h-3.93c-2.33,0-3.46-.47-3.46-2.35V55.78H457V50.24h-7.25V48h10V59.12H457v-1h-4.46v6.77c0,.75.22,1.08,1.27,1.08h2.94c1.1,0,1.45-.15,1.68-2.54Z"/><path d="M474.82,47.26l2.33.15c.35,0,.7.05.7.3s-.3.28-.47.38a.21.21,0,0,0-.1.22v.43H487v1.93h-9.67v1h6.34v4.68h-6.34v1h8v2.91h1.55V62.2H485.3v3.91h-2.51v-.93h-5.51V67c0,1.81-.83,2.24-3.94,2.24l-1.08-2.61c.4,0,.85.07,1.58.07.3,0,1,0,1-.62v-.91H467V63.25h7.87v-1h-9.2V60.32h9.2v-1H467V57.41h7.87v-1h-6.37V51.7h6.37v-1h-9.43V48.74h9.43Zm0,7.4V53.5H471v1.16Zm6.34,0V53.5h-3.88v1.16Zm1.63,5.66v-1h-5.51v1Zm0,2.93v-1h-5.51v1Z"/><path d="M509.19,57.74c-.81.3-4.37,1.7-5.09,2,.1,1.65.22,3.41.25,5h-2.84c.13-3.26.13-3.34.13-4-.9.45-3.51,1.73-3.51,3.71,0,1.8,2.08,2,3.56,2a29.76,29.76,0,0,0,6.47-.88v2.71a32.76,32.76,0,0,1-5.67.52c-2.86,0-7-.32-7-3.83s3.69-5.39,6-6.57a2,2,0,0,0-2-1.78c-2.3,0-4.36,2.91-5.51,4.71l-2.31-1.5a25.87,25.87,0,0,0,5-6.74c-.33,0-2.36.15-3.53.1l-.36-2.61a29.75,29.75,0,0,0,3.26.15c.63,0,.7,0,1.73,0a21.88,21.88,0,0,0,1-3.33l2.43.43c.91.15.91.25.91.37s-.05.18-.56.53a15.8,15.8,0,0,0-.85,1.7,21.64,21.64,0,0,0,5.17-1.25l-.31,2.68a51.67,51.67,0,0,1-6,1,14.22,14.22,0,0,1-1.3,2.19,5.69,5.69,0,0,1,2.18-.43c2.33,0,3,1.38,3.38,2.81a22.79,22.79,0,0,0,4.39-2.33Z"/><path d="M530.89,56.94H518.81V54.86a32.74,32.74,0,0,1-3.49,2l-2-2a30,30,0,0,0,7-4.19,14.78,14.78,0,0,0,3.31-3.81l2.68.72c.08,0,.5.16.5.41s-.25.32-.5.32a21.94,21.94,0,0,0,10,5.64l-1.43,2.58a28.31,28.31,0,0,1-4-1.65ZM516.28,61.8V59.32h14.61l1.51,1.35a35.1,35.1,0,0,1-5.5,8.93l-2.78-1.21a26.34,26.34,0,0,0,4.82-6.59Zm13.86-7.32a18.84,18.84,0,0,1-5.54-4.24,31.21,31.21,0,0,1-5.27,4.24Z"/><path d="M551.54,47.58c1,.13,1.11.16,1.11.48,0,.13-.08.2-.25.33s-.28.3-.3,2.93c2.4-.15,4.76-.3,7.17-.53v2.76l-4.22-.07c-1,0-1.9.05-2.93.12l0,3.21a5.16,5.16,0,0,1,1,3.19A12.18,12.18,0,0,1,552,65a12.33,12.33,0,0,1-3.54,4.59l-2.78-1.31a9.35,9.35,0,0,0,4.34-5,2.51,2.51,0,0,1-2.21,1c-1.76,0-3.46-1.38-3.46-4.21s1.78-4.74,4.29-4.74a4.65,4.65,0,0,1,.85.08V53.78a89.65,89.65,0,0,0-9.35,1l-.3-3c2.4,0,4.18-.1,9.57-.37a30.53,30.53,0,0,0-.47-4.19ZM546.88,60c0,.38.08,2,1.38,2,.6,0,1.68-.45,1.68-2.13s-.6-2.06-1.45-2.06S546.88,58.77,546.88,60Z"/><path d="M574.93,69.55a39.92,39.92,0,0,0-7-7.65c-2.71-2.26-3.19-2.66-3.19-3.89a2.44,2.44,0,0,1,.8-1.8c.36-.38,2.24-2,2.64-2.36.72-.67,4.58-4.31,6.16-6.92l2.06,1.76c.55.47.6.52.6.7s-.1.2-.35.25-.38,0-.58.28a67.69,67.69,0,0,1-6.74,6.24c-.68.55-1.68,1.4-1.68,1.83s.13.38,1.2,1.15a37.74,37.74,0,0,1,8.43,8.38Zm4.61-13.94A13.69,13.69,0,0,0,577.26,53l1.18-1.23a14,14,0,0,1,2.41,2.65Zm1.56-3.39a13.63,13.63,0,0,0-2.33-2.28l1.12-1.23A12.32,12.32,0,0,1,582.33,51Z"/><path d="M594.33,56.28c0-1.25,0-2.18-.1-3.66a44.92,44.92,0,0,1-6,1.13l-1.33-2.43a25.84,25.84,0,0,0,12.33-3.46L601,49.31c.25.21.7.61.7.81,0,0,0,.17-.25.17s-.48-.07-.55-.07a2.48,2.48,0,0,0-.5.2,22.53,22.53,0,0,1-3.16,1.3c0,1.56,0,3-.05,4.54h7v2.48H597c-.37,3.69-1.78,7.22-7.27,10.36l-2.55-1.93c4.76-1.89,6.54-4.92,7-8.43h-9.07V56.26Z"/><path d="M610.07,54.2h12.31v2.23h-4.91v8.35H624V67H608.47V64.78H615V56.43h-4.89Z"/><path d="M630.3,59.19a15,15,0,0,0-2-3.81l2-.83a13.93,13.93,0,0,1,2,3.89Zm1,7.17c5.94-2.4,8.15-6.19,9.45-12.78l1.91.57c.57.18.75.25.75.4s-.15.26-.3.36a.53.53,0,0,0-.3.42c-1,3.74-2.44,9.38-9.61,12.79Zm3.58-8.25a12.88,12.88,0,0,0-1.73-4l1.91-.8A15.19,15.19,0,0,1,637,57.44Z"/><path d="M662.64,51.17c.3,0,.42,0,1-.48l2.31,2.44c-1.08.72-1.18.77-1.58,1.88-2.66,7.14-5,9.92-11.2,14l-2.66-1.88a22,22,0,0,0,11.38-13.51h-6.72a26.56,26.56,0,0,1-5,5.64l-2.53-1.66a20.93,20.93,0,0,0,7.29-9.82l2.31.87c.77.3.87.35.87.53s-.2.23-.5.38c-.07,0-.75,1.35-.9,1.6Z"/><path d="M670.58,49.44h3.19v5l-.86,8.5h-1.48l-.85-8.5Zm0,18.3V64.56h3.19v3.18Z"/></g></g></svg>